<?xml version="1.0" encoding="utf-8"?>
<?xml-stylesheet type="text/xsl" href="rss1.xsl"?>
<rss version="2.0" xmlns:atom="http://www.w3.org/2005/Atom" xmlns:content="http://purl.org/rss/1.0/modules/content/" xmlns:dc="http://purl.org/dc/elements/1.1/" xmlns:media="http://search.yahoo.com/mrss/">
<channel>
 <title>Getty</title>
 <link>http://www.gettyimg.com/</link>
 <atom:link href="http://www.gettyimg.com/" rel="self" type="application/rss+xml" />

 
                <item>
                <title><![CDATA[【Singles (lossless)】FLAC - Mylène Farmer - L' Emprise (Remixes) [Qobuz, 24B-48.0kHz]]]></title>
                <link><![CDATA[https://sharemania.us/threads/myl%C3%A8ne-farmer-l-emprise-remixes-qobuz-24b-48-0khz.223757/]]></link>
                <description><![CDATA[<article>
<blockquote class="messageText SelectQuoteContainer ugc baseHtml">
<div style="text-align: center"><img src="https://i.imgur.com/nYEXixn.jpg" class="bbCodeImage LbImage" alt="[​IMG]" data-url="https://i.imgur.com/nYEXixn.jpg" style=""><br>
<br>
<b>Artist / Group:</b> Mylène Farmer<br>
<b>Single / Album:</b> L'Emprise (Remixes)<br>
<b>Date of Release</b>: 30/06/2023<br>
<b>Genre:</b> Pop / Dance<br>
<b>Size:</b> 280 MB<br>
<b>Format: </b>FLAC (24B/48kHz)<br>
<br>
<div class="bbCodeBlock bbCodeCode">
<div class="type">Code:</div>
<pre>01 L'Emprise  00:03:55
02 L'Emprise (Adrenalin Rush Remix by Tepr)  00:04:55
03 L'Emprise (Haunting Obsession Remix by Fragrance)  00:04:26
04 L'Emprise (Invasive Spell Remix by LD)  00:05:47
05 L'Emprise (Instrumental Version)  00:03:55</pre>
</div>
<div class="bbCodeBlock bbCodeVfcHH HiddenContent">
<div class="attribution type">Hidden Content:</div>
<blockquote>You must reply before you can see the hidden data contained here.</blockquote>
</div></div>
<div class="messageTextEndMarker">&nbsp;</div>
</blockquote>
</article>]]></description>
                <author><![CDATA[mavs88]]></author>
                </item>

                
                <item>
                <title><![CDATA[【Cinema Center】WEB-DL - Concorde Final Takeoff from JFK Airport [1080p 60fps] [DDP2.0] [MAVERICK]]]></title>
                <link><![CDATA[https://sharemania.us/threads/concorde-final-takeoff-from-jfk-airport-1080p-60fps-ddp2-0-maverick.223756/]]></link>
                <description><![CDATA[<article>
<blockquote class="messageText SelectQuoteContainer ugc baseHtml">
<div style="text-align: center"><b>Concorde Final Takeoff from JFK Airport [1080p 60fps] [DDP2.0] [MAVERICK]</b>​</div><b><img src="https://i.postimg.cc/zvLvzxxK/Concorde-Final-Takeoff-from-JFK-Airport-1080p-60fps-DDP2-0-MAVERICK.jpg" class="bbCodeImage LbImage" alt="[​IMG]" data-url="https://i.postimg.cc/zvLvzxxK/Concorde-Final-Takeoff-from-JFK-Airport-1080p-60fps-DDP2-0-MAVERICK.jpg" style=""></b>
<div class="ToggleTriggerAnchor bbCodeSpoilerContainer">
<button type="button" class="button bbCodeSpoilerButton ToggleTrigger Tooltip JsOnly" data-target="> .SpoilerTarget"><span>Spoiler: <span class="SpoilerTitle">Media Info:</span></span></button>
<div class="SpoilerTarget bbCodeSpoilerText">General<br>
Complete name : C:\Users\Maverick\Desktop\Concorde Final Takeoff from JFK Airport [1080p 60fps] [DDP2.0] [MAVERICK].mkv<br>
Format : Matroska<br>
Format version : Version 4<br>
File size : 81.8 MiB<br>
Duration : 47 s 904 ms<br>
Overall bit rate : 14.3 Mb/s<br>
Movie name : Concorde Final Takeoff from JFK Airport [1080p 60fps] [DDP2.0] [MAVERICK]<br>
Encoded date : UTC 2023-07-01 21:22:29<br>
Writing application : mkvmerge v74.0.0 ('You Oughta Know') 64-bit<br>
Writing library : libebml v1.4.4 + libmatroska v1.7.1 / Lavf58.76.100<br>
<br>
Video<br>
ID : 1<br>
Format : AVC<br>
Format/Info : Advanced Video Codec<br>
Format profile : High@L5.2<br>
Format settings : CABAC / 4 Ref Frames<br>
Format settings, CABAC : Yes<br>
Format settings, Reference fra : 4 frames<br>
Codec ID : V_MPEG4/ISO/AVC<br>
Duration : 47 s 817 ms<br>
Bit rate : 14.1 Mb/s<br>
Width : 3840 pixels<br>
Height : 2160 pixels<br>
Display aspect ratio : 16:9<br>
Frame rate mode : Constant<br>
Frame rate : 60.000 FPS<br>
Color space : YUV<br>
Chroma subsampling : 4:2:0<br>
Bit depth : 8 bits<br>
Scan type : Progressive<br>
Bits/(Pixel*Frame) : 0.028<br>
Stream size : 80.3 MiB (98%)<br>
Title : Concorde Final Takeoff from JFK Airport [1080p 60fps] [DDP2.0] [MAVERICK]<br>
Writing library : x264 core 164 r3075 66a5bc1<br>
Encoding settings : cabac=1 / ref=3 / deblock=1:0:0 / analyse=0x3:0x113 / me=hex / subme=7 / psy=1 / psy_rd=1.00:0.00 / mixed_ref=1 / me_range=16 / chroma_me=1 / trellis=1 / 8x8dct=1 / cqm=0 / deadzone=21,11 / fast_pskip=1 / chroma_qp_offset=-2 / threads=18 / lookahead_threads=3 / sliced_threads=0 / nr=0 / decimate=1 / interlaced=0 / bluray_compat=0 / constrained_intra=0 / bframes=3 / b_pyramid=2 / b_adapt=1 / b_bias=0 / direct=1 / weightb=1 / open_gop=0 / weightp=2 / keyint=300 / keyint_min=30 / scenecut=40 / intra_refresh=0 / rc_lookahead=40 / rc=crf / mbtree=1 / crf=20.0 / qcomp=0.60 / qpmin=0 / qpmax=69 / qpstep=4 / ip_ratio=1.40 / aq=1:1.00<br>
Language : English<br>
Default : Yes<br>
Forced : No<br>
Color range : Limited<br>
<br>
Audio<br>
ID : 2<br>
Format : E-AC-3<br>
Format/Info : Enhanced AC-3<br>
Commercial name : Dolby Digital Plus<br>
Codec ID : A_EAC3<br>
Duration : 47 s 904 ms<br>
Bit rate mode : Constant<br>
Bit rate : 256 kb/s<br>
Channel(s) : 2 channels<br>
Channel layout : L R<br>
Sampling rate : 48.0 kHz<br>
Frame rate : 31.250 FPS (1536 SPF)<br>
Compression mode : Lossy<br>
Stream size : 1.46 MiB (2%)<br>
Title : DDP2.0<br>
Language : English<br>
Service kind : Complete Main<br>
Default : Yes<br>
Forced : No</div>
</div>
<div class="ToggleTriggerAnchor bbCodeSpoilerContainer">
<button type="button" class="button bbCodeSpoilerButton ToggleTrigger Tooltip JsOnly" data-target="> .SpoilerTarget"><span>Spoiler: <span class="SpoilerTitle">Download:</span></span></button>
<div class="SpoilerTarget bbCodeSpoilerText">
<div class="bbCodeBlock bbCodeVfcHH HiddenContent">
<div class="attribution type">Hidden Content:</div>
<blockquote>You must either reply or click 'Like' to see the hidden information contained here.</blockquote>
</div></div>
</div><div style="text-align: center"><b>Please Note This File Has Been uploaded to Gofile, because its free fast upload and download speeds Grab it while you can, Admin should reupload My files to google drive.</b><br>
<br>
<b><b><b><b>Please Credit Me Maverick if you are going to upload my files elsewhere!</b></b></b><br>
<br>
<b><b>New Content will only Be Uploaded from this Account <a href="https://sharemania.us/members/176676/" class="username" data-user="176676, @Maverick">@Maverick</a></b></b></b><br>
<br>
<br>
<b>Enjoy <img src="styles/default/xenforo/smilies/big_smile-48.png" class="mceSmilie" alt=":)" title="Smile    :)"></b>​</div>
<div class="messageTextEndMarker">&nbsp;</div>
</blockquote>
</article>]]></description>
                <author><![CDATA[Maverick]]></author>
                </item>

                </channel></rss>